<mxfile host="app.diagrams.net" modified="2023-05-24T11:58:48.101Z" agent="Mozilla/5.0 (X11; Linux x86_64) AppleWebKit/537.36 (KHTML, like Gecko) Chrome/113.0.0.0 Safari/537.36" etag="v0pdZj02pUvDWrfmfLGB" version="21.3.3" type="device">
  <diagram name="Page-1" id="5f0bae14-7c28-e335-631c-24af17079c00">
    <mxGraphModel dx="1434" dy="833" grid="1" gridSize="10" guides="1" tooltips="1" connect="1" arrows="1" fold="1" page="1" pageScale="1" pageWidth="1100" pageHeight="850" background="none" math="0" shadow="0">
      <root>
        <mxCell id="0" />
        <mxCell id="1" parent="0" />
        <mxCell id="XvrqegxyJKsQavua11FO-24" value="Workers pool" style="rounded=1;whiteSpace=wrap;html=1;align=center;verticalAlign=top;" vertex="1" parent="1">
          <mxGeometry x="805" y="40" width="190" height="225" as="geometry" />
        </mxCell>
        <mxCell id="XvrqegxyJKsQavua11FO-16" style="edgeStyle=orthogonalEdgeStyle;rounded=0;orthogonalLoop=1;jettySize=auto;html=1;exitX=1;exitY=0.5;exitDx=0;exitDy=0;" edge="1" parent="1" source="XvrqegxyJKsQavua11FO-21" target="XvrqegxyJKsQavua11FO-4">
          <mxGeometry relative="1" as="geometry" />
        </mxCell>
        <mxCell id="XvrqegxyJKsQavua11FO-2" value="&lt;p style=&quot;line-height: 120%;&quot;&gt;Node.js parent worker&lt;/p&gt;" style="rounded=1;whiteSpace=wrap;html=1;align=center;verticalAlign=top;" vertex="1" parent="1">
          <mxGeometry x="40" y="80" width="290" height="160" as="geometry" />
        </mxCell>
        <mxCell id="XvrqegxyJKsQavua11FO-3" value="Thread X" style="rounded=1;whiteSpace=wrap;html=1;" vertex="1" parent="1">
          <mxGeometry x="840" y="80" width="120" height="60" as="geometry" />
        </mxCell>
        <mxCell id="XvrqegxyJKsQavua11FO-4" value="Thread Y" style="rounded=1;whiteSpace=wrap;html=1;" vertex="1" parent="1">
          <mxGeometry x="840" y="170" width="120" height="60" as="geometry" />
        </mxCell>
        <mxCell id="XvrqegxyJKsQavua11FO-20" style="edgeStyle=orthogonalEdgeStyle;rounded=0;orthogonalLoop=1;jettySize=auto;html=1;" edge="1" parent="1" source="XvrqegxyJKsQavua11FO-8" target="XvrqegxyJKsQavua11FO-21">
          <mxGeometry relative="1" as="geometry" />
        </mxCell>
        <mxCell id="XvrqegxyJKsQavua11FO-8" value="Threads setup utils" style="rounded=1;whiteSpace=wrap;html=1;align=center;verticalAlign=top;" vertex="1" parent="1">
          <mxGeometry x="40" y="310" width="290" height="180" as="geometry" />
        </mxCell>
        <mxCell id="XvrqegxyJKsQavua11FO-9" value="Detect parallelism" style="rounded=1;whiteSpace=wrap;html=1;" vertex="1" parent="1">
          <mxGeometry x="50" y="340" width="120" height="60" as="geometry" />
        </mxCell>
        <mxCell id="XvrqegxyJKsQavua11FO-10" value="Find scripts" style="rounded=1;whiteSpace=wrap;html=1;" vertex="1" parent="1">
          <mxGeometry x="200" y="340" width="120" height="60" as="geometry" />
        </mxCell>
        <mxCell id="XvrqegxyJKsQavua11FO-14" value="Fork worker" style="rounded=1;whiteSpace=wrap;html=1;" vertex="1" parent="1">
          <mxGeometry x="50" y="410" width="120" height="60" as="geometry" />
        </mxCell>
        <mxCell id="XvrqegxyJKsQavua11FO-19" value="Setup thread test execution" style="rounded=1;whiteSpace=wrap;html=1;" vertex="1" parent="1">
          <mxGeometry x="200" y="410" width="120" height="60" as="geometry" />
        </mxCell>
        <mxCell id="XvrqegxyJKsQavua11FO-25" style="edgeStyle=orthogonalEdgeStyle;rounded=0;orthogonalLoop=1;jettySize=auto;html=1;" edge="1" parent="1" source="XvrqegxyJKsQavua11FO-21" target="XvrqegxyJKsQavua11FO-3">
          <mxGeometry relative="1" as="geometry" />
        </mxCell>
        <mxCell id="XvrqegxyJKsQavua11FO-21" value="Workers pools management" style="rounded=1;whiteSpace=wrap;html=1;" vertex="1" parent="1">
          <mxGeometry x="190" y="130" width="130" height="90" as="geometry" />
        </mxCell>
        <mxCell id="XvrqegxyJKsQavua11FO-23" value="Threads execution evaluation" style="rounded=1;whiteSpace=wrap;html=1;" vertex="1" parent="1">
          <mxGeometry x="50" y="130" width="130" height="90" as="geometry" />
        </mxCell>
        <mxCell id="XvrqegxyJKsQavua11FO-28" style="edgeStyle=orthogonalEdgeStyle;rounded=0;orthogonalLoop=1;jettySize=auto;html=1;entryX=0.5;entryY=1;entryDx=0;entryDy=0;exitX=0.5;exitY=1;exitDx=0;exitDy=0;startArrow=none;startFill=0;endArrow=block;endFill=1;" edge="1" parent="1" source="XvrqegxyJKsQavua11FO-24" target="XvrqegxyJKsQavua11FO-23">
          <mxGeometry relative="1" as="geometry" />
        </mxCell>
      </root>
    </mxGraphModel>
  </diagram>
</mxfile>
